<?xml version="1.0" encoding="iso-8859-1"?>
<svg version="1.1" id="&#x56FE;&#x5C42;_1" xmlns="http://www.w3.org/2000/svg" xmlns:xlink="http://www.w3.org/1999/xlink" x="0px"
	 y="0px" viewBox="0 0 2002.007 466.07" style="fill:#FFFFFF;" xml:space="preserve">
<title>Web3D</title>
<g id="&#x56FE;&#x5C42;_2_1_">
	<g id="&#x56FE;&#x5C42;_7">
		<polygon points="200,77.18 316.1,144.9 382.25,106.31 200,0 17.75,106.31 83.9,144.9 		"/>
		<polygon points="207.28,246.15 207.28,312.82 333.33,239.82 333.33,311.11 200,388.89 66.67,311.11 
			66.67,173.44 0,134.55 0,349.4 200,466.07 400,349.4 400,201.22 400,134.55 400,134.55 		"/>
		<path d="M960.267,87.72l-80.62,302.54h-71.68L756.357,193c-2.77-10.936-4.405-22.129-4.88-33.4h-0.78
			c-1.333,13.54-3.157,24.673-5.47,33.4l-52.74,197.26h-74.41l-80.66-302.54h70.7l44.92,205.08c1.953,8.98,3.32,20.313,4.1,34h1.37
			c0.829-11.837,2.839-23.562,6-35l56.25-204.1h68.56l51.17,206.64c2.08,8.207,3.707,18.873,4.88,32h1
			c0.502-11.179,2.005-22.29,4.49-33.2l44-205.47L960.267,87.72z"/>
		<path d="M1173.347,300h-142.18c2.213,33.46,22.393,50.19,60.54,50.19c23.827,0,44.857-5.86,63.09-17.58
			v46.29c-19.66,11.067-45.443,16.6-77.35,16.6c-34.373,0-61.097-9.7-80.17-29.1s-28.616-46.407-28.63-81.02
			c0-34.5,10.153-62.527,30.46-84.08s45.837-32.32,76.59-32.3c30.587,0,54.51,9.277,71.77,27.83
			c17.26,18.553,25.887,44.043,25.88,76.47V300z M1114.557,260.54c0-32.287-13.083-48.43-39.25-48.43
			c-10.813,0-20.383,4.427-28.71,13.28s-13.537,20.57-15.63,35.15H1114.557z"/>
		<path d="M1277.447,364.28v26h-63.08V70.53h63.08v136.72h0.79c16.527-25.52,40.094-38.28,70.7-38.28
			c27.213,0,48.547,9.507,64,28.52s23.17,45.25,23.15,78.71c0,35.807-8.853,64.647-26.56,86.52
			c-17.707,21.873-41.21,32.81-70.51,32.81c-26.827,0-47.073-10.417-60.74-31.25H1277.447z M1276.447,296.9
			c0,14.187,4.23,26.1,12.69,35.74c8.46,9.64,19.203,14.46,32.23,14.46c15.753,0,28.027-6.12,36.82-18.36s13.187-29.573,13.18-52
			c0-18.607-4-33.157-12-43.65c-8-10.493-19.427-15.733-34.28-15.72c-14.06,0-25.68,5.273-34.86,15.82
			c-9.18,10.547-13.77,24.087-13.77,40.62L1276.447,296.9z"/>
		<path d="M1482.917,324.44c20.194,15.113,43.763,22.667,70.71,22.66c17.053,0,30.594-3.777,40.62-11.33
			c10.027-7.553,15.027-18.297,15-32.23c0-14.32-5.957-25.257-17.87-32.81c-11.914-7.553-28.614-11.33-50.1-11.33h-27v-48.63h24.8
			c40.633,0,60.947-13.667,60.94-41c0-25.78-15.56-38.67-46.68-38.67c-20.313,0-40.04,6.64-59.18,19.92V98.85
			c20.827-10.8,45.37-16.203,73.63-16.21c28.667,0,51.91,6.61,69.73,19.83c17.82,13.22,26.74,31.553,26.76,55
			c0,39.58-20.053,64.45-60.16,74.61v1c21.1,2.353,37.963,10.07,50.59,23.15c12.627,13.08,18.94,28.997,18.94,47.75
			c0,28.78-10.513,51.243-31.54,67.39s-49.053,24.217-84.08,24.21c-31.12,0-56.187-5.143-75.2-15.43L1482.917,324.44z"/>
		<path d="M1733.707,390.26V87.72h104.49c107.42,0,161.13,49.153,161.13,147.46
			c0,46.753-15.04,84.287-45.12,112.6c-30.08,28.313-68.88,42.473-116.4,42.48H1733.707z M1798.157,140.46v197.07h35.15
			c30.6,0,54.623-9.117,72.07-27.35c17.447-18.233,26.174-42.9,26.18-74c0-30.08-9.117-53.55-27.35-70.41
			c-18.233-16.86-41.93-25.29-71.09-25.29L1798.157,140.46z"/>
	</g>
</g>
</svg>
