<svg width="30" height="30" viewBox="0 0 30 30" fill="none" xmlns="http://www.w3.org/2000/svg">
<g id="Frame" clip-path="url(#clip0_5266_26792)">
<path id="Vector" d="M15.2451 23.0792C19.8697 22.9029 23.569 19.2134 23.569 14.6842C23.569 13.678 23.1821 12.3487 22.4159 10.7304C21.6677 9.19216 20.8128 7.70819 19.8575 6.28934C18.8782 4.79838 17.8989 3.46166 17.2354 2.59989C16.4863 1.62061 15.9697 0.986522 15.8987 0.903283C15.8266 0.796238 15.7292 0.708552 15.6152 0.647929C15.5013 0.587307 15.3741 0.555603 15.2451 0.555603C15.116 0.555603 14.9888 0.587307 14.8749 0.647929C14.7609 0.708552 14.6635 0.796238 14.5914 0.903283C14.5204 0.986522 14.0038 1.61571 13.2547 2.59989C12.601 3.46166 11.6144 4.80328 10.6326 6.28934C9.67726 7.70819 8.82238 9.19216 8.07425 10.7304C7.30796 12.3487 6.92114 13.678 6.92114 14.6842C6.92114 19.2134 10.6204 22.9029 15.2451 23.0792ZM10.2874 11.7758C10.9881 10.3427 11.7865 8.95944 12.6769 7.63585C13.6194 6.2061 14.5718 4.91345 15.2034 4.08106L15.2451 4.0272L15.2867 4.08106C15.9183 4.91345 16.8707 6.2061 17.8132 7.63585C18.7045 8.95887 19.5029 10.3422 20.2027 11.7758C21.0302 13.5311 21.1208 14.3929 21.1208 14.6818C21.1208 17.8645 18.5428 20.4571 15.2451 20.6285C11.9473 20.4571 9.36935 17.862 9.36935 14.6842C9.36935 14.3929 9.45993 13.5311 10.2874 11.7758Z" fill="white"/>
<path id="Vector_2" d="M15.8889 19.6812C16.0173 19.6808 16.1444 19.6558 16.2634 19.6077C17.3997 19.1487 18.3744 18.3632 19.0646 17.3506C19.7548 16.3379 20.1295 15.1435 20.1414 13.9181C20.1414 13.6584 20.0382 13.4093 19.8546 13.2256C19.6709 13.042 19.4219 12.9388 19.1621 12.9388C18.9024 12.9388 18.6533 13.042 18.4697 13.2256C18.286 13.4093 18.1828 13.6584 18.1828 13.9181C18.1706 14.7557 17.9106 15.571 17.4357 16.2611C16.9608 16.9512 16.2923 17.4853 15.5143 17.7961C15.3043 17.8823 15.1308 18.0389 15.0235 18.2389C14.9161 18.439 14.8816 18.6701 14.9259 18.8927C14.9701 19.1154 15.0904 19.3158 15.266 19.4596C15.4417 19.6034 15.6618 19.6818 15.8889 19.6812ZM4.94049 22.0682C5.82785 22.0722 6.70015 21.8389 7.46704 21.3925C6.90566 20.6943 6.44119 19.9235 6.08625 19.101C5.73947 19.3058 5.3432 19.4116 4.94049 19.407C4.39144 19.4159 3.85885 19.2194 3.44708 18.8561L2.82768 18.293C2.57716 18.0635 2.24938 17.9368 1.9096 17.9381C1.72291 17.9381 1.5382 17.9764 1.36684 18.0505C1.19548 18.1246 1.0411 18.2329 0.913184 18.3689C0.793521 18.4978 0.700571 18.6491 0.639697 18.8141C0.578823 18.9791 0.551232 19.1546 0.558516 19.3303C0.565799 19.506 0.607814 19.6785 0.682134 19.8379C0.756454 19.9973 0.861608 20.1404 0.991526 20.259L1.61092 20.822C2.5261 21.6394 3.71351 22.0855 4.94049 22.0731V22.0682ZM29.0872 18.5036C28.849 18.2483 28.5221 18.0941 28.1737 18.0727C27.8252 18.0513 27.4819 18.1643 27.2143 18.3885L26.4529 19.074C26.0421 19.4376 25.5105 19.6349 24.9619 19.6273C24.7121 19.6284 24.4639 19.5879 24.2275 19.5074C23.8295 20.3254 23.3222 21.0856 22.7194 21.767C23.4196 22.1161 24.1918 22.2964 24.9742 22.2934C26.1999 22.3073 27.3863 21.8609 28.2988 21.0424L29.0553 20.3569C29.302 20.1135 29.4435 19.7832 29.4495 19.4367C29.4554 19.0903 29.3253 18.7553 29.0872 18.5036ZM26.3843 25.6132C26.1001 25.6102 25.822 25.6958 25.5887 25.858L24.9326 26.3721C24.5621 26.6273 24.1228 26.764 23.6729 26.764C23.2231 26.764 22.7838 26.6273 22.4133 26.3721L21.9898 26.0416C21.1385 25.4149 20.1091 25.0768 19.052 25.0768C17.9948 25.0768 16.9654 25.4149 16.1141 26.0416L16.026 26.1126C15.6562 26.3707 15.2161 26.509 14.7651 26.509C14.3142 26.509 13.8741 26.3707 13.5043 26.1126C12.6582 25.4759 11.6253 25.1368 10.5665 25.148C9.50763 25.1369 8.47481 25.4761 7.62862 26.1126L7.50866 26.2105C7.14164 26.4737 6.69936 26.6111 6.24783 26.6023C5.79711 26.6108 5.35571 26.4734 4.98945 26.2105L4.45084 25.787C4.21359 25.5987 3.91888 25.4976 3.61601 25.5006C3.41055 25.5 3.20767 25.5463 3.02273 25.6358C2.83779 25.7253 2.67565 25.8557 2.54859 26.0171C2.43964 26.1538 2.35888 26.3107 2.31097 26.4788C2.26307 26.6469 2.24897 26.8228 2.26949 26.9964C2.29099 27.1714 2.34682 27.3404 2.43379 27.4937C2.52075 27.6471 2.63714 27.7818 2.77627 27.89L3.31488 28.3111C4.16003 28.9497 5.19355 29.289 6.25273 29.2757C7.3119 29.289 8.34542 28.9497 9.19057 28.3111L9.31299 28.2181C9.68134 27.9642 10.1182 27.8284 10.5656 27.8289C11.013 27.8293 11.4496 27.9659 11.8175 28.2205C12.6696 28.8455 13.6987 29.1824 14.7554 29.1824C15.812 29.1824 16.8412 28.8455 17.6932 28.2205L17.7838 28.1446C18.1534 27.8871 18.593 27.7491 19.0434 27.7491C19.4938 27.7491 19.9334 27.8871 20.303 28.1446L20.729 28.4727C21.5798 29.1005 22.6094 29.4393 23.6668 29.4393C24.7242 29.4393 25.7538 29.1005 26.6047 28.4727L27.2632 27.9635C27.5293 27.7403 27.6972 27.4218 27.7311 27.0762C27.765 26.7307 27.6621 26.3856 27.4444 26.1151C27.3165 25.9574 27.1549 25.8305 26.9714 25.7436C26.788 25.6567 26.5873 25.6122 26.3843 25.6132Z" fill="white"/>
</g>
<defs>
<clipPath id="clip0_5266_26792">
<rect width="28.8889" height="28.8889" fill="white" transform="translate(0.555664 0.555389)"/>
</clipPath>
</defs>
</svg>
