<svg width="18" height="18" viewBox="0 0 18 18" fill="none" xmlns="http://www.w3.org/2000/svg">
<path fill-rule="evenodd" clip-rule="evenodd" d="M3.48957 4.86719C4.25039 4.86719 4.86718 4.2504 4.86718 3.48958C4.86718 2.72874 4.25039 2.11197 3.48957 2.11197C2.72874 2.11197 2.11196 2.72874 2.11196 3.48958C2.11196 4.2504 2.72874 4.86719 3.48957 4.86719Z" stroke="currentColor" stroke-linecap="round" stroke-linejoin="round"/>
<path fill-rule="evenodd" clip-rule="evenodd" d="M4.17837 15.1992C5.31962 15.1992 6.24479 14.2741 6.24479 13.1328C6.24479 11.9916 5.31962 11.0664 4.17837 11.0664C3.03713 11.0664 2.11196 11.9916 2.11196 13.1328C2.11196 14.2741 3.03713 15.1992 4.17837 15.1992Z" stroke="currentColor" stroke-linecap="round" stroke-linejoin="round"/>
<path fill-rule="evenodd" clip-rule="evenodd" d="M13.8216 15.888C14.9629 15.888 15.888 14.9629 15.888 13.8216C15.888 12.6804 14.9629 11.7552 13.8216 11.7552C12.6804 11.7552 11.7552 12.6804 11.7552 13.8216C11.7552 14.9629 12.6804 15.888 13.8216 15.888Z" stroke="currentColor" stroke-linecap="round" stroke-linejoin="round"/>
<path fill-rule="evenodd" clip-rule="evenodd" d="M8.3112 10.0332C9.64266 10.0332 10.722 8.95386 10.722 7.62239C10.722 6.29093 9.64266 5.21158 8.3112 5.21158C6.97973 5.21158 5.90038 6.29093 5.90038 7.62239C5.90038 8.95386 6.97973 10.0332 8.3112 10.0332Z" stroke="currentColor" stroke-linecap="round" stroke-linejoin="round"/>
<path fill-rule="evenodd" clip-rule="evenodd" d="M12.444 4.86719C13.2048 4.86719 13.8216 4.2504 13.8216 3.48958C13.8216 2.72874 13.2048 2.11197 12.444 2.11197C11.6832 2.11197 11.0664 2.72874 11.0664 3.48958C11.0664 4.2504 11.6832 4.86719 12.444 4.86719Z" stroke="currentColor" stroke-linecap="round" stroke-linejoin="round"/>
<path d="M4.52277 4.52277L5.90038 5.90037" stroke="currentColor" stroke-linecap="round" stroke-linejoin="round"/>
<path d="M11.0664 4.86719L10.3776 5.55599" stroke="currentColor" stroke-linecap="round" stroke-linejoin="round"/>
<path d="M12.444 12.2718L10.3776 9.68881" stroke="currentColor" stroke-linecap="round" stroke-linejoin="round"/>
<path d="M5.55598 11.4108L6.93359 10.0332" stroke="currentColor" stroke-linecap="round" stroke-linejoin="round"/>
</svg>
