<svg width="18" height="18" viewBox="0 0 18 18" fill="none" xmlns="http://www.w3.org/2000/svg">
<path d="M1.875 12.7886C1.875 12.4732 2.21079 12.2176 2.625 12.2176H15.375C15.7892 12.2176 16.125 12.4732 16.125 12.7886V15.929C16.125 16.2444 15.7892 16.5 15.375 16.5H2.625C2.21079 16.5 1.875 16.2444 1.875 15.929V12.7886Z" stroke="currentColor"/>
<path d="M7.03613 5.93754C7.08941 5.75012 7.23079 5.625 7.38926 5.625H10.6107C10.7692 5.625 10.9106 5.75012 10.9639 5.93754L12.75 12.2176H5.25L7.03613 5.93754Z" stroke="currentColor" stroke-linecap="round" stroke-linejoin="round"/>
<path d="M10.35 1.5H7.65C6.53162 1.5 5.625 2.40662 5.625 3.525C5.625 4.64338 6.53162 5.55 7.65 5.55H10.35C11.4684 5.55 12.375 4.64338 12.375 3.525C12.375 2.40662 11.4684 1.5 10.35 1.5Z" stroke="currentColor"/>
</svg>
