<svg width="18" height="19" viewBox="0 0 18 19" fill="none" xmlns="http://www.w3.org/2000/svg">
<path d="M15.9115 4.63966C14.1382 2.89346 11.6827 1.8125 8.9694 1.8125C6.27202 1.8125 3.82942 2.88079 2.05865 4.60891" stroke="currentColor" stroke-linecap="round" stroke-linejoin="round"/>
<path d="M2.49994 11.1779V11.1563C2.49994 7.56646 5.41009 4.65631 8.99993 4.65631" stroke="currentColor" stroke-linecap="round" stroke-linejoin="round"/>
<path d="M11.6885 5.23657C13.9368 6.25931 15.5 8.52521 15.5 11.1562V11.1611" stroke="currentColor" stroke-linecap="round" stroke-linejoin="round"/>
<path d="M5.34375 13.9999V11.1562C5.34375 9.13689 6.9807 7.49994 9 7.49994C11.0193 7.49994 12.6562 9.13689 12.6562 11.1562V13.9999" stroke="currentColor" stroke-linecap="round" stroke-linejoin="round"/>
<path d="M6.57221 16.4375C7.3083 16.2558 7.78117 15.4796 7.78117 14.8235C7.78117 14.1258 7.78117 13.0388 7.78117 11.5625C7.78117 10.8894 8.32684 10.3438 8.99992 10.3438C9.67301 10.3438 10.2187 10.8894 10.2187 11.5625V14.8235" stroke="currentColor" stroke-linecap="round" stroke-linejoin="round"/>
</svg>
