<svg width="18" height="18" viewBox="0 0 18 18" fill="none" xmlns="http://www.w3.org/2000/svg">
<path d="M16 3.625C16 3.625 16 13.2386 16 13.9432C16 15.1482 12.866 16.125 8.99998 16.125C5.134 16.125 2.00001 15.1482 2.00001 13.9432C2.00001 13.2677 2 3.625 2 3.625" stroke="currentColor" stroke-linejoin="round"/>
<path d="M16 11.125C16 12.2296 12.866 13.125 9 13.125C5.134 13.125 2 12.2296 2 11.125" stroke="currentColor" stroke-linejoin="round"/>
<path d="M16 7.125C16 8.78185 12.866 10.125 9 10.125C5.134 10.125 2 8.78185 2 7.125" stroke="currentColor" stroke-linejoin="round"/>
<path d="M9 6.125C12.866 6.125 16 5.00571 16 3.625C16 2.24429 12.866 1.125 9 1.125C5.13401 1.125 2 2.24429 2 3.625C2 5.00571 5.13401 6.125 9 6.125Z" stroke="currentColor" stroke-linejoin="round"/>
</svg>
