<svg width="18" height="18" viewBox="0 0 18 18" fill="none" xmlns="http://www.w3.org/2000/svg">
<path d="M16 1.125H2V7.125H16V1.125Z" stroke="currentColor" stroke-linejoin="round"/>
<path d="M16 10.125H2V16.125H16V10.125Z" stroke="currentColor" stroke-linejoin="round"/>
<path d="M4.875 3.75H4.125C3.91789 3.75 3.75 3.91789 3.75 4.125V4.875C3.75 5.08211 3.91789 5.25 4.125 5.25H4.875C5.08211 5.25 5.25 5.08211 5.25 4.875V4.125C5.25 3.91789 5.08211 3.75 4.875 3.75Z" fill="currentColor"/>
<path d="M4.875 12.75H4.125C3.91789 12.75 3.75 12.9179 3.75 13.125V13.875C3.75 14.0821 3.91789 14.25 4.125 14.25H4.875C5.08211 14.25 5.25 14.0821 5.25 13.875V13.125C5.25 12.9179 5.08211 12.75 4.875 12.75Z" fill="currentColor"/>
<path d="M7.875 3.75H7.125C6.91789 3.75 6.75 3.91789 6.75 4.125V4.875C6.75 5.08211 6.91789 5.25 7.125 5.25H7.875C8.08211 5.25 8.25 5.08211 8.25 4.875V4.125C8.25 3.91789 8.08211 3.75 7.875 3.75Z" fill="currentColor"/>
<path d="M7.875 12.75H7.125C6.91789 12.75 6.75 12.9179 6.75 13.125V13.875C6.75 14.0821 6.91789 14.25 7.125 14.25H7.875C8.08211 14.25 8.25 14.0821 8.25 13.875V13.125C8.25 12.9179 8.08211 12.75 7.875 12.75Z" fill="currentColor"/>
</svg>
